<?xml version="1.0" encoding="UTF-8"?>
<svg width="200px" height="200px" viewBox="0 0 200 200" version="1.1" xmlns="http://www.w3.org/2000/svg" xmlns:xlink="http://www.w3.org/1999/xlink">
    <!-- Generator: sketchtool 50.2 (55047) - http://www.bohemiancoding.com/sketch -->
    <title>0A788DF2-6849-4FFC-ADDA-5539E5AAA444</title>
    <desc>Created with sketchtool.</desc>
    <defs></defs>
    <g id="Symbols" stroke="none" stroke-width="1" fill="none" fill-rule="evenodd">
        <g id="SM/Facebook">
            <g id="Group">
                <path d="M199.980305,99.9901523 C199.980305,155.211588 155.211908,199.980473 99.9899842,199.980473 C44.7661077,199.980473 -0.000336134454,155.211588 -0.000336134454,99.9901523 C-0.000336134454,44.7662758 44.7661077,-0.000168067226 99.9899842,-0.000168067226 C155.211908,-0.000168067226 199.980305,44.7662758 199.980305,99.9901523" id="Fill-1" fill="#DB0A5B"></path>
                <path d="M125.126393,103.903622 L107.284946,103.903622 L107.284946,169.269533 L80.2530264,169.269533 L80.2530264,103.903622 L67.3969119,103.903622 L67.3969119,80.9323247 L80.2530264,80.9323247 L80.2530264,66.0671371 C80.2530264,55.4368704 85.3032941,38.7915904 107.525156,38.7915904 L127.54851,38.8736133 L127.54851,61.172127 L113.021667,61.172127 C110.637632,61.172127 107.286898,62.3634121 107.286898,67.4332091 L107.286898,80.9533186 L127.489434,80.9533186 L125.126393,103.903622 Z" id="Fill-4" fill="#FFFFFF"></path>
            </g>
        </g>
    </g>
</svg>