<?xml version="1.0" encoding="UTF-8"?>
<svg width="40px" height="40px" viewBox="0 0 40 40" version="1.1" xmlns="http://www.w3.org/2000/svg" xmlns:xlink="http://www.w3.org/1999/xlink">
    <!-- Generator: sketchtool 50.2 (55047) - http://www.bohemiancoding.com/sketch -->
    <title>881758C7-A6AE-45EF-8397-B563FD083B00</title>
    <desc>Created with sketchtool.</desc>
    <defs></defs>
    <g id="Symbols" stroke="none" stroke-width="1" fill="none" fill-rule="evenodd">
        <g id="Footer" transform="translate(-995.000000, -354.000000)" fill="#DB0A5B">
            <g id="SM/Insta">
                <g transform="translate(995.000000, 354.000000)">
                    <g id="Group">
                        <path d="M26.3792826,15.0973634 C25.5726921,15.0973634 24.9166859,14.4409642 24.9166859,13.6347591 C24.9166859,12.828554 25.5726921,12.1725444 26.3792826,12.1725444 C27.1858731,12.1725444 27.8418792,12.828554 27.8418792,13.6347591 C27.8418792,14.4409642 27.1858731,15.0973634 26.3792826,15.0973634 M19.9998052,26.1810517 C16.5917874,26.1810517 13.8193212,23.4081816 13.8193212,19.9998539 C13.8193212,16.5918184 16.5917874,13.8192405 19.9998052,13.8192405 C23.4081152,13.8192405 26.1806788,16.5918184 26.1806788,19.9998539 C26.1806788,23.407792 23.4077256,26.1810517 19.9998052,26.1810517 M25.9451594,10.6122449 L14.054451,10.6122449 C12.1561727,10.6122449 10.6122449,12.1565703 10.6122449,14.0543714 L10.6122449,25.9452389 C10.6122449,27.8434297 12.1561727,29.3877551 14.054451,29.3877551 L25.9451594,29.3877551 C27.8429507,29.3877551 29.3877551,27.8438193 29.3877551,25.9452389 L29.3877551,14.0543714 C29.3877551,12.1565703 27.8433403,10.6122449 25.9451594,10.6122449" id="Fill-1"></path>
                        <path d="M19.8983491,16.5306122 C17.9295358,16.5306122 16.3265306,18.1326746 16.3265306,20.1015047 C16.3265306,22.0710171 17.9295358,23.6734694 19.8983491,23.6734694 C21.8679421,23.6734694 23.4693878,22.0710171 23.4693878,20.1015047 C23.4693878,18.1334544 21.8675522,16.5306122 19.8983491,16.5306122" id="Fill-3"></path>
                        <path d="M32.0303906,26.0146191 C32.0303906,29.361966 29.3082292,32.0845113 25.9608741,32.0845113 L14.0392235,32.0845113 C10.6921614,32.0845113 7.96921883,29.361966 7.96921883,26.0146191 L7.96921883,14.0928999 C7.96921883,10.7463342 10.6921614,8.02349598 14.0392235,8.02349598 L25.9608741,8.02349598 C29.3082292,8.02349598 32.0303906,10.7463342 32.0303906,14.0928999 L32.0303906,26.0146191 Z M20.0000488,0 C8.95456798,0 0,8.95454612 0,20 C0,31.0450633 8.95456798,40 20.0000488,40 C31.0450414,40 40,31.0450633 40,20 C40,8.95454612 31.0450414,0 20.0000488,0 Z" id="Fill-5"></path>
                    </g>
                </g>
            </g>
        </g>
    </g>
</svg>