<?xml version="1.0" encoding="UTF-8"?>
<svg width="40px" height="40px" viewBox="0 0 40 40" version="1.1" xmlns="http://www.w3.org/2000/svg" xmlns:xlink="http://www.w3.org/1999/xlink">
    <!-- Generator: sketchtool 50.2 (55047) - http://www.bohemiancoding.com/sketch -->
    <title>F4FD7EFB-DBFF-4213-92A4-0AC852B42F1E</title>
    <desc>Created with sketchtool.</desc>
    <defs></defs>
    <g id="Symbols" stroke="none" stroke-width="1" fill="none" fill-rule="evenodd">
        <g id="Footer" transform="translate(-1115.000000, -354.000000)">
            <g id="SM/LinkedIn">
                <g transform="translate(1115.000000, 354.000000)">
                    <g id="Group">
                        <path d="M40,20 C40,31.0453562 31.0453562,40 20,40 C8.9541555,40 0,31.0453562 0,20 C0,8.9541555 8.9541555,0 20,0 C31.0453562,0 40,8.9541555 40,20 Z" id="Fill-1" fill="#DB0A5B"></path>
                        <path d="M31.840796,21.6113309 L31.840796,29.8507463 L27.0629057,29.8507463 L27.0629057,22.1633641 C27.0629057,20.2333459 26.3728061,18.91518 24.6428719,18.91518 C23.3225074,18.91518 22.538117,19.8026097 22.1918959,20.6618377 C22.0660771,20.9690324 22.0336708,21.3951821 22.0336708,21.8260159 L22.0336708,29.8503559 L17.2549996,29.8503559 C17.2549996,29.8503559 17.3191291,16.830491 17.2549996,15.4830498 L22.0340612,15.4830498 L22.0340612,17.5189468 C22.0242026,17.5349506 22.0108301,17.550564 22.0020453,17.5657871 L22.0340612,17.5657871 L22.0340612,17.5189468 C22.6689138,16.5419348 23.8013799,15.1457016 26.3403021,15.1457016 C29.4841108,15.1457016 31.840796,17.1990661 31.840796,21.6113309 Z M12.2560236,8.55721393 C10.6213563,8.55721393 9.55223881,9.62985829 9.55223881,11.0394605 C9.55223881,12.4186165 10.5905117,13.5225854 12.1934559,13.5225854 L12.2243005,13.5225854 C13.8909837,13.5225854 14.9273044,12.4186165 14.9273044,11.0394605 C14.8955813,9.62985829 13.8909837,8.55721393 12.2560236,8.55721393 Z M9.83598979,29.8507463 L14.6130992,29.8507463 L14.6130992,15.4830498 L9.83598979,15.4830498 L9.83598979,29.8507463 Z" id="Fill-4" fill="#F1F2F2"></path>
                    </g>
                </g>
            </g>
        </g>
    </g>
</svg>