<svg xmlns="http://www.w3.org/2000/svg" width="151" height="24" viewBox="0 0 151 24">
    <g fill="none" fill-rule="evenodd">
        <g fill="#DB0A5B">
            <g>
                <g>
                    <g>
                        <path d="M74.48 8.345c-.227-.456-.456-.911-.673-1.372-.062-.133-.14-.18-.287-.178-.881.006-1.763.002-2.645.003-.214 0-.223.009-.223.213v16.443c0 .21.009.219.218.219h4.019c.033 0 .076.011.1-.005.044-.03.094-.069.112-.116.02-.05.006-.112.006-.169.009-3.087.016-6.173.029-9.26.002-.563.095-1.115.272-1.651.283-.858.822-1.483 1.706-1.786.487-.167.992-.225 1.504-.237.12-.003.19-.025.19-.165-.003-1.211-.003-2.422 0-3.633 0-.124-.05-.179-.172-.166-.225.023-.451.036-.674.073-1.31.217-2.39.84-3.262 1.823-.035.039-.055.089-.099.16-.064-.102-.097-.147-.122-.196zm-58.238-.019c-.223-.453-.449-.904-.665-1.36-.06-.126-.138-.172-.278-.171-.882.005-1.764.002-2.646.003-.23 0-.234.005-.234.231v16.417c0 .219.008.227.225.227h3.99c.266 0 .266 0 .266-.258l.001-9.149c0-.563.077-1.117.237-1.657.256-.871.753-1.543 1.64-1.883.519-.198 1.062-.264 1.613-.276.136-.003.19-.048.186-.184-.007-.27-.002-.541-.002-.812V6.689c0-.19-.026-.214-.218-.203-.12.007-.24.017-.36.032-1.399.172-2.557.792-3.494 1.825-.044.049-.09.096-.155.166-.046-.078-.08-.129-.106-.183zm42.149 9.824c-.002.591.067 1.175.207 1.748.27 1.112.798 2.075 1.704 2.811 1.104.898 2.409 1.223 3.804 1.24.444.005.896-.052 1.332-.142 2.035-.416 3.374-1.596 3.961-3.577.286-.964.311-1.955.298-2.95 0-.107-.062-.136-.158-.136h-4.02c-.106 0-.158.037-.16.15-.005.26 0 .523-.033.781-.047.376-.09.757-.194 1.119-.169.582-.47.77-1.083.774-.39.003-.68-.163-.823-.512-.11-.266-.203-.55-.228-.833-.07-.812-.13-1.627-.144-2.441-.024-1.324-.034-2.65.08-3.97.035-.403.09-.803.255-1.18.16-.366.436-.57.845-.584.42-.014.74.152.933.525.066.126.12.26.158.396.16.557.19 1.13.206 1.705.005.18.017.196.198.197h3.976c.174 0 .195-.018.192-.187-.006-.366-.02-.73-.025-1.096-.01-.558-.092-1.107-.235-1.645-.35-1.313-1.057-2.374-2.26-3.08-.882-.517-1.852-.735-2.867-.776-.706-.028-1.403.057-2.083.252-1.272.365-2.293 1.066-2.983 2.197-.571.935-.815 1.967-.846 3.043-.03 1.073-.006 2.147-.006 3.22 0 .984.002 1.967-.001 2.95zm33.526.134c-.107 0-.196.01-.19.15.02.397.004.8.062 1.191.256 1.737 1.24 2.952 2.821 3.71.961.46 1.985.64 3.054.601.585-.021 1.161-.084 1.726-.234 1.135-.3 2.09-.868 2.766-1.839.614-.882.853-1.881.905-2.93.027-.536.005-1.072-.08-1.605-.237-1.47-.974-2.611-2.277-3.382-.927-.548-1.946-.84-3.001-1.02-.727-.125-1.433-.564-1.379-1.538.024-.416.23-.746.597-.873.443-.153.92-.043 1.18.263.225.263.277.58.3.903.01.123.057.164.179.164 1.368-.002 2.736-.002 4.105 0 .131 0 .188-.047.177-.175-.029-.34-.036-.683-.09-1.02-.188-1.175-.726-2.164-1.663-2.927-1.023-.833-2.228-1.177-3.53-1.236-.67-.03-1.336.037-1.99.198-1.573.39-2.724 1.274-3.323 2.79-.315.8-.412 1.635-.393 2.488.013.609.108 1.203.339 1.767.702 1.722 2.06 2.586 3.872 2.845.511.074 1.019.157 1.494.37.512.231.85.611.946 1.16.052.296.062.603.054.903-.013.433-.3.78-.724.894-.164.045-.341.06-.513.061-.534.004-.972-.327-1.094-.841-.049-.205-.05-.423-.06-.635-.01-.187-.015-.202-.208-.202H91.917zM37.243 7.894c-.168-.31-.34-.618-.499-.933-.063-.124-.145-.167-.283-.166-.887.005-1.773.002-2.66.003-.208 0-.217.009-.217.22v16.43c0 .217.007.225.226.225h3.975c.254 0 .254 0 .254-.255 0-3.15-.005-6.299.004-9.448.002-.658.041-1.317.087-1.974.024-.36.11-.713.286-1.038.203-.372.532-.52.945-.51.4.011.686.197.845.563.045.104.086.211.116.32.19.7.223 1.417.225 2.132.01 3.32.005 6.64.005 9.96 0 .25 0 .25.246.25h3.99c.033 0 .067-.002.1 0 .106.004.15-.05.146-.149-.002-.047 0-.095 0-.142 0-3.487.004-6.973-.004-10.46-.001-.63-.033-1.261-.086-1.889-.064-.746-.247-1.47-.56-2.155-.408-.889-1.007-1.605-1.918-2.03-.78-.364-1.598-.434-2.44-.305-1.004.154-1.855.586-2.522 1.35-.047.054-.082.117-.137.196-.064-.1-.098-.146-.124-.195zm-11.725 7.202c-.004 1.129-.023 2.259.121 3.381.04.317.128.632.233.935.1.29.321.485.638.54.127.022.259.014.389.014.269 0 .505-.1.637-.326.126-.214.226-.451.286-.691.157-.62.167-1.26.173-1.894.012-1.167 0-2.335-.025-3.502-.012-.567-.06-1.135-.118-1.7-.036-.354-.12-.704-.323-1.01-.356-.538-1.22-.541-1.566.005-.112.177-.187.386-.238.59-.176.715-.183 1.448-.205 2.177-.015.493-.003.987-.002 1.48zm3.333 7.381c-.203.185-.386.36-.578.524-.607.524-1.329.795-2.119.897-.65.084-1.295.066-1.928-.127-1.07-.327-1.838-1.008-2.368-1.966-.385-.697-.614-1.449-.7-2.232-.074-.673-.112-1.352-.118-2.029-.016-1.752-.02-3.505 0-5.258.014-1.149.161-2.283.658-3.343.57-1.215 1.466-2.076 2.824-2.352 1.345-.273 2.607-.057 3.71.802.161.126.297.283.445.426l.125.13c.05-.083.094-.147.131-.216.141-.265.282-.53.417-.798.05-.097.114-.14.226-.139.91.003 1.821.003 2.732 0 .13 0 .189.046.178.175-.004.038 0 .076 0 .114v16.301c0 .048-.002.095 0 .143.003.102-.047.144-.15.144H29.56c-.103 0-.158-.045-.198-.132-.144-.312-.291-.621-.438-.93-.024-.05-.053-.097-.074-.134zM84.111 24c.14-.023.28-.05.421-.068 1.055-.143 1.94-.595 2.635-1.398.036-.04.078-.075.13-.125.04.068.072.114.098.164.17.314.343.627.506.945.057.113.132.157.26.156.89-.003 1.782-.001 2.674-.002.19 0 .204-.013.204-.204V6.995c0-.184-.015-.199-.195-.199h-4.062c-.182 0-.197.016-.199.195v.157c-.01 3.614-.016 7.228-.032 10.843-.002.427-.072.85-.216 1.257-.16.453-.45.75-.965.763-.345.008-.663-.073-.841-.392-.113-.2-.2-.423-.253-.646-.19-.79-.196-1.601-.2-2.405-.015-3.183-.007-6.366-.008-9.548 0-.218-.006-.224-.226-.224h-3.773c-.097 0-.193.004-.29-.001-.126-.007-.176.05-.167.17.004.052 0 .105 0 .157 0 3.562-.003 7.125.005 10.687.001.587.028 1.177.091 1.76.092.851.321 1.67.752 2.422.62 1.082 1.533 1.76 2.797 1.945.112.017.223.043.334.064h.52zm19.72-24c.005.08.013.16.013.24l.001 23.101c0 .053.004.105 0 .157-.01.128.045.177.176.176 1.369-.002 2.738-.002 4.106 0 .134 0 .185-.052.174-.178-.004-.048 0-.095 0-.143.008-3.486.015-6.972.03-10.458.002-.374.042-.748.09-1.12.045-.334.146-.653.337-.945.321-.493 1.372-.57 1.68.125.067.151.13.308.17.468.165.673.187 1.362.201 2.049.016.798.004 1.596.004 2.394v7.581c0 .208.013.225.184.225h4.12c.02 0 .045.007.056-.002.043-.035.095-.068.116-.115.02-.043.006-.102.006-.155 0-3.43.003-6.859-.002-10.289 0-.592-.02-1.186-.057-1.777-.051-.81-.222-1.598-.545-2.348-.39-.906-.973-1.648-1.884-2.099-.694-.343-1.43-.454-2.202-.378-.767.076-1.464.314-2.067.798-.061.05-.124.098-.221.174-.007-.112-.016-.184-.016-.257V.213c0-.071.008-.142.012-.213h-4.482zM6.953 15.118l.038-.001c-.041-1.009-.075-2.018-.129-3.026-.02-.374-.096-.744-.256-1.09-.106-.227-.26-.408-.51-.494-.534-.186-1.04.014-1.248.531-.112.28-.202.58-.228.878-.07.816-.127 1.634-.144 2.453-.019.915.003 1.832.023 2.747.011.487.045.975.088 1.46.03.337.107.666.28.965.128.224.317.371.574.414.126.022.26.012.389.01.222 0 .412-.081.568-.238.2-.202.289-.458.35-.723.169-.726.18-1.467.202-2.205.017-.56.003-1.12.003-1.68zM4.453 0c-.004.071-.012.142-.012.213v6.926c0 .078.008.156.015.272.082-.055.133-.085.18-.122.61-.48 1.318-.706 2.088-.78.74-.072 1.451.021 2.127.33.87.4 1.462 1.068 1.873 1.905.352.718.551 1.481.62 2.27.057.638.084 1.279.088 1.918.011 1.767.012 3.535 0 5.302-.006.914-.117 1.818-.403 2.693-.308.944-.795 1.771-1.636 2.355-.603.419-1.278.626-2.015.652-.869.032-1.696-.113-2.466-.523-.42-.223-.779-.523-1.09-.88-.037-.041-.077-.08-.132-.14-.039.064-.072.107-.095.155-.159.325-.318.65-.47.978-.049.104-.112.151-.232.15-.9-.003-1.802-.003-2.703 0-.131 0-.188-.047-.177-.176.005-.052 0-.104 0-.156V.269C.013.18.005.09 0 0h4.453zm48.445 15.305c-.004-1.009.035-2.163-.117-3.311-.05-.382-.116-.763-.317-1.102-.359-.603-1.281-.604-1.627.007-.103.183-.171.393-.22.599-.184.786-.184 1.592-.197 2.392-.024 1.414-.032 2.83.085 4.24.032.376.102.754.208 1.117.155.535.445.712 1.012.722.413.008.685-.184.851-.54.05-.107.089-.221.12-.336.162-.596.18-1.21.198-1.82.017-.608.004-1.216.004-1.968zM57.395 0c-.004.095-.012.19-.012.284v23.1c0 .289 0 .289-.293.289-.853 0-1.706-.003-2.559.003-.146 0-.228-.047-.287-.18-.14-.312-.294-.619-.444-.927-.026-.054-.058-.105-.087-.157l-.066-.044c-.024.048-.038.103-.07.142-.632.748-1.45 1.18-2.412 1.349-.763.134-1.522.132-2.265-.12-.982-.333-1.672-.992-2.152-1.881-.396-.736-.615-1.528-.698-2.35-.06-.585-.086-1.174-.09-1.761-.01-1.957-.021-3.915.006-5.871.016-1.099.214-2.174.714-3.172.507-1.013 1.267-1.766 2.396-2.06 1.327-.345 2.578-.17 3.697.665.027.02.055.038.084.055.011.006.027.005.059.011.004-.053.01-.102.01-.152V.141c0-.047-.008-.094-.013-.141h4.482z" transform="translate(-30.000000, -18.000000) translate(30.000000, 13.000000) translate(0.000000, 5.000000)"/>
                        <g fill-rule="nonzero">
                            <path d="M1.65 15.868c-.911 0-1.65.688-1.65 1.537s.739 1.537 1.65 1.537c.91 0 1.65-.688 1.65-1.537s-.74-1.537-1.65-1.537M21.02 4.657c-.328-1.037-.89-1.996-1.65-2.813C18.199.674 16.35.335 16.272.307h-.106S16.057.29 14.282 2.46L4.715 14.14s-1.775 2.17.66.643l15.71-9.895-.066-.23zM29.99 12.988c-.26-1.426-.919-2.762-1.91-3.874l-.083-.083s-.082-.083-2.827.861l-19.103 6.55s-2.748.941.182.945h22.748l.106-.145c.85-1.271 1.167-2.79.89-4.267M7.196 1.414C7.143 1.328 6.635.563 4.764.148c-1.87-.415-2.92.184-2.97.212l-.078.049s-.08.049-.073 2.766l.023 9.77s0 2.726 1.02.169L7.275 1.537l-.08-.123z" transform="translate(-30.000000, -18.000000) translate(30.000000, 13.000000) translate(0.000000, 5.000000) translate(117.000000, 4.800000)"/>
                        </g>
                    </g>
                    <path d="M147.54 21.93c-.102-.001-.155.04-.15.144v.142c-.004.092.035.15.133.143.117-.01.131.05.13.146-.004.298-.001.597-.001.895 0 .306 0 .301.307.304.137 0 .189-.047.187-.183-.006-.341 0-.682-.003-1.023-.001-.09.017-.146.126-.139.096.007.14-.045.137-.14-.002-.047-.002-.094 0-.141.004-.101-.042-.15-.146-.147-.12.003-.24 0-.36 0s-.24.003-.36 0zM150.326 21.92c-.168.003-.336.012-.504.01-.11-.002-.169.038-.194.145-.038.161-.083.321-.13.48-.014.052-.04.1-.06.149l-.038-.003-.102-.348c-.147-.495-.023-.411-.57-.424-.14-.003-.184.053-.182.186.005.432.002.863.002 1.295 0 .304.005.306.317.292.102-.004.15-.043.149-.145-.003-.162-.002-.323 0-.484 0-.048.01-.096.015-.143l.038-.005c.016.036.036.071.048.109.043.14.087.28.125.423.024.092.076.13.174.134.122.005.184-.04.213-.16.038-.16.093-.318.141-.477l.052.009c0 .192.003.385 0 .577-.003.114.043.165.161.163.115-.003.23.007.345.012v-1.796z" transform="translate(-30.000000, -18.000000) translate(30.000000, 13.000000) translate(0.000000, 5.000000)"/>
                </g>
            </g>
        </g>
    </g>
</svg>
