<svg xmlns="http://www.w3.org/2000/svg" xmlns:xlink="http://www.w3.org/1999/xlink" width="816" height="551" viewBox="0 0 816 551">
    <defs>
        <path id="os8zie0a0a" d="M0 0.677L813.265 0.677 813.265 271.96 0 271.96z"/>
        <path id="6egnwkwf1b" d="M0.055 0.534L42.466 0.534 42.466 24 0.055 24z"/>
    </defs>
    <g fill="none" fill-rule="evenodd">
        <g>
            <g>
                <g>
                    <g transform="translate(-508.000000, -5398.000000) translate(0.000000, 5398.000000) translate(508.409553, 0.000000) translate(0.590447, 189.000000)"/>
                    <path fill="#006CB6" d="M278.29 374h-107.4c-15.077 0-27.3-12.246-27.3-27.352V27.35c0-15.106 12.223-27.35 27.3-27.35h107.4c15.078 0 27.3 12.244 27.3 27.35v319.298c0 15.106-12.222 27.352-27.3 27.352" transform="translate(-508.000000, -5398.000000) translate(0.000000, 5398.000000) translate(508.409553, 0.000000)"/>
                    <path fill="#19A2B8" d="M577.896 103h-213.61c-6.46 0-11.696-5.198-11.696-11.61V54.61c0-6.413 5.236-11.61 11.695-11.61h213.61c6.46 0 11.695 5.197 11.695 11.61v36.78c0 6.412-5.236 11.61-11.694 11.61" transform="translate(-508.000000, -5398.000000) translate(0.000000, 5398.000000) translate(508.409553, 0.000000)"/>
                    <path fill="#006CB6" d="M683.896 197h-213.61c-6.46 0-11.696-5.198-11.696-11.61v-36.781c0-6.412 5.236-11.609 11.695-11.609h213.61c6.46 0 11.695 5.197 11.695 11.609v36.78c0 6.413-5.236 11.611-11.694 11.611" transform="translate(-508.000000, -5398.000000) translate(0.000000, 5398.000000) translate(508.409553, 0.000000)"/>
                    <path fill="#19A2B8" d="M360.284 320c-6.459 0-11.694-5.197-11.694-11.61v-36.78c0-6.412 5.235-11.61 11.694-11.61h213.613c6.459 0 11.693 5.198 11.693 11.61v36.78c0 6.413-5.234 11.61-11.693 11.61H360.284z" transform="translate(-508.000000, -5398.000000) translate(0.000000, 5398.000000) translate(508.409553, 0.000000)"/>
                    <path fill="#FFF" d="M470.96 63H368.221c-.9 0-1.632-.671-1.632-1.5 0-.83.732-1.5 1.632-1.5h102.737c.9 0 1.631.67 1.631 1.5 0 .829-.73 1.5-1.63 1.5M546.941 87H367.24c-.91 0-1.65-.671-1.65-1.5s.74-1.5 1.65-1.5H546.94c.91 0 1.65.671 1.65 1.5s-.74 1.5-1.65 1.5M665.96 155H563.221c-.9 0-1.632-.671-1.632-1.5s.732-1.5 1.632-1.5h102.737c.9 0 1.631.671 1.631 1.5s-.73 1.5-1.63 1.5M665.941 180H486.24c-.91 0-1.65-.671-1.65-1.5s.74-1.5 1.65-1.5H665.94c.91 0 1.65.671 1.65 1.5s-.74 1.5-1.65 1.5M470.96 279H368.221c-.9 0-1.632-.671-1.632-1.5s.732-1.5 1.632-1.5h102.737c.9 0 1.631.671 1.631 1.5s-.73 1.5-1.63 1.5M546.941 303H367.24c-.91 0-1.65-.671-1.65-1.5s.74-1.5 1.65-1.5H546.94c.91 0 1.65.671 1.65 1.5s-.74 1.5-1.65 1.5M263.59 90c0 21.539-17.46 39-39 39-21.538 0-39-17.461-39-39s17.462-39 39-39c21.54 0 39 17.461 39 39M242.972 161h-36.764c-.894 0-1.618-.671-1.618-1.5s.724-1.5 1.618-1.5h36.764c.895 0 1.618.671 1.618 1.5s-.723 1.5-1.618 1.5M263.944 173h-78.708c-.91 0-1.646-.671-1.646-1.5s.737-1.5 1.646-1.5h78.708c.91 0 1.646.671 1.646 1.5s-.736 1.5-1.646 1.5M270.956 186h-93.731c-.903 0-1.635-.671-1.635-1.5s.732-1.5 1.635-1.5h93.731c.903 0 1.634.671 1.634 1.5s-.731 1.5-1.634 1.5" transform="translate(-508.000000, -5398.000000) translate(0.000000, 5398.000000) translate(508.409553, 0.000000)"/>
                    <g transform="translate(-508.000000, -5398.000000) translate(0.000000, 5398.000000) translate(508.409553, 0.000000) translate(183.590447, 527.000000)">
                        <mask id="3y418arzcc" fill="#fff">
                            <use xlink:href="#6egnwkwf1b"/>
                        </mask>
                        <path fill="#971B50" d="M3.507 5.488S.055 10.812.055 15.394C.055 19.976 1.781 24 8.622 24c6.842 0 34.45-11.331 33.834-14.797-.617-3.468-25.058-6.422-25.058-6.422L6.588.534l-3.08 4.954z" mask="url(#3y418arzcc)"/>
                    </g>
                    <path fill="#971B50" d="M155.09 524.066s-3.5 5.446-3.5 10.132 1.75 8.802 8.686 8.802c6.937 0 34.929-11.588 34.304-15.134-.625-3.547-25.406-6.568-25.406-6.568L158.214 519l-3.124 5.066z" transform="translate(-508.000000, -5398.000000) translate(0.000000, 5398.000000) translate(508.409553, 0.000000)"/>
                    <path fill="#FFBF2B" d="M162.59 342.773s4.523 20.554 13.466 40.902c8.943 20.348 10.806 41.805 8.57 63.263-2.236 21.457-3.726 40.696-1.862 58.084 1.863 17.388 4.471 27.378 4.471 27.378s3.291 2.404 7.329 2.59c4.036.184 6.023-2.159 6.023-2.159s16.956-80.096 15.961-124.985c-.993-44.889-4.281-68.47-4.281-68.47L187.235 323l-24.645 19.773z" transform="translate(-508.000000, -5398.000000) translate(0.000000, 5398.000000) translate(508.409553, 0.000000)"/>
                    <path fill="#FFBF2B" d="M137.835 330.353s-2.208 25.973 6.641 46.321c8.851 20.348 10.695 41.806 8.482 63.263-2.212 21.46-3.687 40.698-1.844 58.086 1.844 17.388 4.425 27.377 4.425 27.377s3.258 2.406 7.252 2.59c3.996.184 5.962-2.159 5.962-2.159s16.78-80.096 15.796-124.986c-.983-44.889-4.239-68.469-4.239-68.469L155.54 316l-17.705 14.353z" transform="translate(-508.000000, -5398.000000) translate(0.000000, 5398.000000) translate(508.409553, 0.000000)"/>
                    <path fill="#971B50" d="M256.59 201.494s1.753-8.83 4.116-11.544c2.363-2.716 5.722-6.786 7.09-5.799 1.369.986-2.363 5.182-1.491 5.922.869.74 8.084 1.973 7.213 6.415-.87 4.44-3.11 7.77-3.11 7.77l-8.955.742-4.863-3.506zM192.191 191s3.153 4.948 4.098 10.947c.944 6-.632 15.053-.632 15.053s-6.196 0-10.609-3.685c-4.411-3.683-6.723-7.578-6.723-7.578L177.59 201l3.256-6.422 3.153-2.842 8.192-.736z" transform="translate(-508.000000, -5398.000000) translate(0.000000, 5398.000000) translate(508.409553, 0.000000)"/>
                    <path fill="#971B50" d="M191.59 216.797s-.723 1.698-.78 3.918c-.056 2.22 0 10.285 0 10.285l-13.936-.272-.284-10.88 2.153-4.438 6.232-2.539 6.06-.871.555 4.797z" transform="translate(-508.000000, -5398.000000) translate(0.000000, 5398.000000) translate(508.409553, 0.000000)"/>
                    <path fill="#281441" d="M142.25 239s-25.264 25.325-25.635 37.177c-.37 11.852 3.339 27.461 22.626 36.381 19.289 8.919 26.707-26.389 26.336-27.875C165.206 283.195 142.25 239 142.25 239" transform="translate(-508.000000, -5398.000000) translate(0.000000, 5398.000000) translate(508.409553, 0.000000)"/>
                    <path fill="#534367" d="M269.72 213.27c1.66.74 2.2 2.195-.156 3.723-2.457 1.604-2.546.326-2.959 1.914 0 .007-.007.014-.007.023-5.712 23.91-18.48 70.17-31.438 69.077-17.468-1.479-22.391-17.487-22.391-17.487s1.232 10.158-.058 19.208c-1.293 9.049-.555 15.883 4.242 24.378 4.797 8.495.923 25.115.923 25.115s-26.014 17.487-55.039 9.847c-29.032-7.63-31.247-17.972-31.247-17.972s.738-11.325 5.661-22.9c2.722-6.405 1.757-16.342.641-27.214-.102-.975-.199-1.958-.303-2.949-.796-7.911-1.51-16.192-.833-23.86 2.71-30.435 43.313-31.366 43.313-31.366s21.387.192 33.932 7.823c12.546 7.63 19.433 17.234 19.433 17.234s9.105-20.632 15.866-31.617c.693-1.13 1.357-2.178 1.991-3.147 0 0 0-.006.009-.006 1.268-1.995-.4-3.428 1.165-4.256 1.573-.827.28-2.216.93-4.713.134-.518.488-.909.967-1.204v-.008c.574-.361 1.328-.593 2.094-.737 1.769-.337 3.599-.176 5.317.361l7.947 2.482s1.431 1.078 1.786 2.948c.08.407.11.85.06 1.33-.282 2.681-3.508 3.235-1.846 3.974" transform="translate(-508.000000, -5398.000000) translate(0.000000, 5398.000000) translate(508.409553, 0.000000)"/>
                    <path fill="#DFDCE2" d="M193.59 162.336c-12.113-2.716-17.897 17.778-15.04 24.392 1.899 4.394-7.137 1.596-10.179 10.197-2.093 5.928 1.575 11.392 1.575 11.392s-1.96 6.724 2.727 10.683c-9.78-2.784-6.862-12.773-6.862-12.773s-3.668-5.471-1.575-11.391c3.048-8.61 12.077-5.811 10.182-10.197-2.94-6.8 3.25-28.253 16.051-24.113 1.246.407 2.275 1.02 3.121 1.81" transform="translate(-508.000000, -5398.000000) translate(0.000000, 5398.000000) translate(508.409553, 0.000000)"/>
                    <path fill="#281441" d="M193.002 191.137s-.75 3.966-3.71 4.595c-2.965.634-3.817 3.234-3.116 4.572.699 1.343 2.857 1.862 3.298 3.812.44 1.942-.043 3.673-1.516 2.256-1.472-1.417-3.261-1.89-3.81-.394-.542 1.498-.231 4.098 2.258 4.017 2.497-.08 1.552 9.51-9.496 8.984-1.71-.081-3.167-.322-4.425-.68-4.638-3.915-2.698-10.568-2.698-10.568s-3.63-5.405-1.558-11.27c3.01-8.508 11.95-5.74 10.074-10.086-2.83-6.544 2.894-26.818 14.88-24.131 7.771 7.23-.181 28.893-.181 28.893M234.59 251s3.437 4.473 4.837 9.567c1.4 5.095 1.145 10.433 1.145 10.433l-5.982-20zM252.594 211s-.177 1.25 1.915 2.143c2.094.892 7.081.857 7.081.857l-8.996-3zM254.59 205s0 1.619 2.355 2.516c2.357.898 7.645.271 7.645.271l-10-2.787z" transform="translate(-508.000000, -5398.000000) translate(0.000000, 5398.000000) translate(508.409553, 0.000000)"/>
                    <path fill="#DFDCE2" d="M194.235 166s1.851 4.012 1.227 9.646c-.624 5.635-1.872 7.354-1.872 7.354s1.198-5.635 1.001-9.455c-.198-3.82-.356-7.545-.356-7.545" transform="translate(-508.000000, -5398.000000) translate(0.000000, 5398.000000) translate(508.409553, 0.000000)"/>
                    <path fill="#281441" d="M209.59 293s-2.155 4.52-6.709 8.585c-4.552 4.066-13.29 4.415-13.29 4.415l20-13z" transform="translate(-508.000000, -5398.000000) translate(0.000000, 5398.000000) translate(508.409553, 0.000000)"/>
                </g>
            </g>
        </g>
    </g>
</svg>
