<svg xmlns="http://www.w3.org/2000/svg" xmlns:xlink="http://www.w3.org/1999/xlink" width="70" height="70" viewBox="0 0 70 70">
    <defs>
        <path id="wd4o29bj2a" d="M0.062 0.062L47.938 0.062 47.938 47.938 0.062 47.938z"/>
        <path id="0akr5lnyoc" d="M0.062 0.062L47.938 0.062 47.938 47.938 0.062 47.938z"/>
    </defs>
    <g fill="none" fill-rule="evenodd">
        <g>
            <g>
                <g transform="translate(-235.000000, -1032.000000) translate(100.000000, 704.000000) translate(135.000000, 328.000000)">
                    <rect width="70" height="70" fill="#DB0A5B" rx="6"/>
                    <g>
                        <g transform="translate(11.000000, 11.000000) translate(0.727273, 0.500000)">
                            <mask id="m9kaw147jb" fill="#fff">
                                <use xlink:href="#wd4o29bj2a"/>
                            </mask>
                            <path fill="#FEFEFE" d="M46.74 35.005L24.599 46.36V24.366L46.741 13.01v21.995zM1.26 13.01l7.106 3.645v10.133c0 .013.007.024.008.036.002.04.013.078.024.117.01.039.02.077.038.113.005.01.005.023.011.035l1.162 1.999c.121.208.357.325.593.293l1.677-.214 1.225 1.852c.112.168.3.268.499.268.023 0 .046-.001.069-.004l2.314-.27c.029-.003.052-.018.08-.025.039-.011.078-.02.113-.038.035-.017.063-.04.094-.063.03-.023.06-.045.086-.074.026-.028.043-.06.064-.094.019-.032.039-.064.052-.1.013-.038.017-.076.023-.116.004-.03.017-.054.017-.084v-9.585l6.886 3.532V46.36L1.26 35.005V13.01zM24 1.326l6.722 3.275L8.967 15.618l-6.968-3.573L24 1.326zM10.283 16.294l21.79-11.035 5.634 2.745L15.775 19.11l-5.492-2.816zm5.035 13.593l-1.419.165-1.227-1.856c-.126-.19-.348-.29-.575-.263l-1.653.21-.88-1.517V17.27l5.754 2.951v9.667zM24 23.327l-6.908-3.542L39.056 8.662l6.945 3.383L24 23.327zm23.891-11.516c-.022-.054-.05-.105-.088-.151l-.021-.03c-.038-.041-.081-.08-.13-.11-.011-.006-.024-.009-.035-.015-.006-.003-.01-.009-.015-.011L24.262.123c-.165-.08-.359-.08-.524 0L.398 11.493c-.005.003-.009.009-.015.012-.01.006-.023.009-.034.015-.05.03-.092.069-.13.11l-.022.03c-.037.046-.066.097-.087.151-.006.014-.013.027-.017.041-.019.058-.03.117-.03.18V35.37c0 .225.125.43.325.533l23.339 11.969c.008.004.016.002.025.006.078.036.162.06.248.06s.169-.024.248-.06c.008-.004.017-.002.025-.006l23.34-11.97c.199-.102.325-.307.325-.532V12.031c0-.062-.013-.121-.03-.179l-.017-.041z" mask="url(#m9kaw147jb)"/>
                        </g>
                        <g transform="translate(11.000000, 11.000000) translate(0.727273, 0.500000)">
                            <mask id="wv1crsadhd" fill="#fff">
                                <use xlink:href="#0akr5lnyoc"/>
                            </mask>
                            <path fill="#FEFEFE" d="M2.417 12.049l6.55 3.36L30.302 4.604 24 1.535 2.417 12.048zm6.55 3.779L1.58 12.041 24 1.118l7.142 3.48-22.176 11.23zm1.728.467l5.08 2.605L37.287 8.007l-5.212-2.539-21.379 10.827zm5.08 3.025L9.87 16.293l22.2-11.243L38.127 8 15.775 19.32zm1.729.466L24 23.117 45.583 12.05 39.058 8.87 17.504 19.786zM24 23.537l-7.32-3.753L39.055 8.453l7.365 3.587L24 23.537zm-11.83 4.204c.266 0 .511.13.658.352l1.164 1.76 1.139-.133v-9.385l-5.38-2.76v9.001l.793 1.366 1.53-.195c.032-.004.064-.006.097-.006zm1.637 2.51l-1.29-1.952c-.087-.13-.239-.2-.398-.18l-1.774.226-.969-1.668v-9.714l6.13 3.143v9.947l-1.7.198zm-12.36 4.64l21.767 11.163V24.48l-6.512-3.34v9.28c0 .043-.01.077-.016.1l-.005.026c-.006.038-.012.086-.03.136-.019.051-.043.091-.064.127l-.013.021c-.02.033-.042.07-.075.107-.037.042-.074.07-.108.095l-.018.014c-.03.022-.066.05-.112.072-.045.023-.092.036-.13.046l-.016.004c-.032.013-.065.026-.108.031l-2.313.27c-.029.003-.06.005-.091.005-.264 0-.509-.131-.655-.352l-1.16-1.755-1.562.2c-.313.041-.618-.11-.778-.385l-1.163-2c-.013-.024-.02-.045-.024-.06-.02-.043-.03-.083-.04-.118l-.004-.013c-.012-.045-.024-.09-.029-.14-.004-.015-.009-.037-.009-.063V16.77l-6.733-3.453V34.89zm22.142 11.775L1.072 35.119V12.704l7.481 3.837v10.227c.004.013.007.029.008.048 0 .015.008.04.015.07l.006.02c.007.026.013.049.02.063.009.016.014.031.017.043l1.152 1.982c.083.142.247.223.407.202l1.793-.23 1.289 1.95c.085.128.234.201.388.181l2.316-.27c.017-.008.035-.015.054-.02l.017-.005c.024-.006.047-.012.06-.019.016-.008.032-.02.053-.035l.013-.01c.027-.02.047-.036.059-.05.01-.01.02-.029.033-.05l.01-.016c.017-.029.03-.05.036-.067.005-.014.008-.035.011-.06l.003-.02c.003-.02.008-.038.013-.057l.002-.006v-9.884l7.26 3.724v22.414zm1.197-22.186v21.574L46.554 34.89V13.317L24.786 24.48zm-.374 22.186V24.252l22.516-11.548V35.12l-.102.053-22.414 11.494zm-.622 1.028c.012.003.027.008.043.016.118.053.213.055.338-.002.013-.007.028-.012.04-.015l23.316-11.957c.138-.07.224-.21.224-.366V12.031c0-.036-.007-.076-.022-.123l-.012-.027c-.015-.039-.035-.073-.06-.104l-.016-.022c-.025-.029-.052-.052-.079-.07l-.032-.014-.028-.018L24.18.291c-.113-.055-.247-.055-.36 0L.498 11.653l-.033.02-.026.011c-.026.017-.053.041-.082.073l-.014.02c-.025.03-.045.065-.06.102l-.007.02c-.02.056-.027.096-.027.132v23.34c0 .154.086.295.224.365L23.79 47.694zm.564.367l-.02.009.02-.01zm-.354.064c-.098 0-.2-.023-.303-.067l-.01-.001-.043-.017L.302 36.07c-.263-.136-.427-.404-.427-.7V12.031c0-.076.013-.153.04-.236.004-.014.01-.03.018-.046.03-.078.07-.145.117-.205.011-.016.02-.027.029-.037.056-.062.112-.11.172-.146.013-.008.025-.014.037-.019.01-.007.02-.013.034-.02L23.656-.044c.216-.105.473-.105.688 0l23.362 11.381.008.007.031.015c.065.04.12.087.175.147.012.013.021.026.03.039.047.059.086.125.114.197l.006.014.015.038c.027.087.04.163.04.238v23.34c0 .295-.164.563-.427.698l-23.34 11.97c-.02.01-.04.015-.053.018-.108.046-.208.068-.305.068z" mask="url(#wv1crsadhd)"/>
                        </g>
                    </g>
                </g>
            </g>
        </g>
    </g>
</svg>
