<svg xmlns="http://www.w3.org/2000/svg" width="70" height="70" viewBox="0 0 70 70">
    <g fill="none" fill-rule="evenodd">
        <g>
            <g>
                <g transform="translate(-975.000000, -1032.000000) translate(100.000000, 704.000000) translate(875.000000, 328.000000)">
                    <rect width="70" height="70" fill="#DB0A5B" rx="6"/>
                    <g fill="#FEFEFE">
                        <path d="M1.604 10.548h46.791V1.604H1.605v8.944zm0 37.847h46.791V12.152H1.605v36.243zM49.198 0H.802C.36 0 0 .36 0 .802v48.396c0 .442.36.802.802.802h48.396c.442 0 .802-.36.802-.802V.802C50 .36 49.64 0 49.198 0z" transform="translate(10.000000, 10.000000)"/>
                        <path d="M42.533 5.5L41.2 6.833c-.266.267-.266.7 0 .967.13.129.3.2.483.2s.355-.071.484-.2L43.5 6.467 44.833 7.8c.129.129.3.2.483.2s.355-.071.484-.2c.266-.267.266-.7 0-.967L44.467 5.5 45.8 4.167c.267-.266.267-.7 0-.967s-.7-.267-.967 0L43.5 4.533 42.167 3.2c-.267-.267-.7-.267-.967 0s-.267.7 0 .967L42.533 5.5zM6.674 33.494h14.653V18.506H6.674v14.988zM5.837 35h16.326c.462 0 .837-.338.837-.753V17.753c0-.415-.375-.753-.837-.753H5.837c-.462 0-.837.338-.837.753v16.494c0 .415.375.753.837.753zM5.83 40h16.34c.457 0 .83-.449.83-1 0-.552-.373-1-.83-1H5.83c-.458 0-.83.448-.83 1 0 .551.372 1 .83 1M5.83 45h16.34c.457 0 .83-.449.83-1 0-.552-.373-1-.83-1H5.83c-.458 0-.83.448-.83 1 0 .551.372 1 .83 1M26.673 33.494h14.654V18.506H26.673v14.988zM25.837 35h16.326c.462 0 .837-.338.837-.753V17.753c0-.415-.375-.753-.837-.753H25.837c-.462 0-.837.338-.837.753v16.494c0 .415.375.753.837.753zM25.83 40h16.34c.457 0 .83-.449.83-1 0-.552-.373-1-.83-1H25.83c-.457 0-.83.448-.83 1 0 .551.373 1 .83 1M25.83 45h16.34c.457 0 .83-.449.83-1 0-.552-.373-1-.83-1H25.83c-.457 0-.83.448-.83 1 0 .551.373 1 .83 1" transform="translate(10.000000, 10.000000)"/>
                    </g>
                </g>
            </g>
        </g>
    </g>
</svg>
