<svg xmlns="http://www.w3.org/2000/svg" xmlns:xlink="http://www.w3.org/1999/xlink" width="70" height="70" viewBox="0 0 70 70">
    <defs>
        <path id="ambnz3tbpa" d="M0 52L52 52 52 0 0 0z"/>
    </defs>
    <g fill="none" fill-rule="evenodd">
        <g>
            <g>
                <g transform="translate(-605.000000, -1032.000000) translate(100.000000, 704.000000) translate(505.000000, 328.000000)">
                    <rect width="70" height="70" fill="#DB0A5B" rx="6"/>
                    <g transform="translate(9.000000, 9.000000)">
                        <path fill="#FEFEFE" d="M11.766 41.755H7.234v-5.51h4.532v5.51zM12.382 35H6.617c-.341 0-.617.278-.617.622v6.756c0 .344.276.622.617.622h5.766c.341 0 .617-.278.617-.622v-6.756c0-.344-.276-.622-.618-.622z"/>
                        <mask id="jrx5iy7bdb" fill="#fff">
                            <use xlink:href="#ambnz3tbpa"/>
                        </mask>
                        <path fill="#FEFEFE" d="M7.517 41.46h3.966v-4.92H7.517v4.92zm-.344.349h4.654V36.19H7.173v5.619zm-.415-6.46c-.228 0-.414.189-.414.42v6.461c0 .232.186.421.414.421h5.484c.228 0 .414-.189.414-.42V35.77c0-.232-.187-.421-.415-.421H6.758zM12.242 43H6.758C6.34 43 6 42.655 6 42.23v-6.46c0-.425.34-.77.758-.77h5.483c.418 0 .758.345.759.77v6.46c0 .425-.34.77-.758.77zM16.234 41.755h4.532v-5.51h-4.532v5.51zM21.384 35h-5.767c-.341 0-.617.278-.617.622v6.756c0 .344.276.622.617.622h5.766c.341 0 .617-.278.617-.622v-6.756c0-.344-.276-.622-.617-.622z" mask="url(#jrx5iy7bdb)"/>
                        <path fill="#FEFEFE" d="M16.517 41.46h3.966v-4.92h-3.966v4.92zm-.344.349h4.654V36.19h-4.654v5.619zm-.415-6.46c-.228 0-.414.189-.414.42v6.461c0 .232.186.421.414.421h5.484c.228 0 .414-.189.414-.42V35.77c0-.232-.186-.421-.414-.421h-5.484zM21.242 43h-5.484c-.418 0-.758-.345-.758-.77v-6.46c0-.425.34-.77.758-.77h5.484c.418 0 .758.345.758.77v6.46c0 .425-.34.77-.758.77zM26.234 41.755h4.532v-5.51h-4.532v5.51zM31.384 35h-5.767c-.341 0-.617.278-.617.622v6.756c0 .344.276.622.617.622h5.766c.341 0 .617-.278.617-.622v-6.756c0-.344-.276-.622-.617-.622z" mask="url(#jrx5iy7bdb)"/>
                        <path fill="#FEFEFE" d="M26.517 41.46h3.966v-4.92h-3.966v4.92zm-.344.349h4.654V36.19h-4.654v5.619zm-.415-6.46c-.228 0-.414.189-.414.42v6.461c0 .232.186.421.414.421h5.484c.228 0 .414-.189.414-.42V35.77c0-.232-.186-.421-.414-.421h-5.484zM31.242 43h-5.484c-.418 0-.758-.345-.758-.77v-6.46c0-.425.34-.77.758-.77h5.484c.418 0 .758.345.758.77v6.46c0 .425-.34.77-.758.77zM6.196 25.145l2.659 2.659c.13.13.303.196.474.196.172 0 .344-.066.474-.196.263-.263.263-.686 0-.949l-2.658-2.658c-.262-.263-.686-.263-.949 0-.262.262-.261.686 0 .948" mask="url(#jrx5iy7bdb)"/>
                        <path fill="#FEFEFE" d="M6.484 25.095l2.421 2.42c.164.164.448.164.611 0 .168-.168.168-.442 0-.61l-2.421-2.421c-.169-.168-.443-.168-.611 0-.168.168-.168.442 0 .61M9.211 28c-.211 0-.41-.082-.559-.231L6.23 25.347c-.307-.308-.307-.809 0-1.116.309-.308.81-.308 1.118 0l2.421 2.421c.308.308.308.809 0 1.117-.15.149-.347.231-.558.231M12.802 26.794c.137.137.317.206.496.206.18 0 .36-.069.496-.206.275-.274.275-.717 0-.992l-5.596-5.596c-.274-.275-.718-.275-.992 0-.275.274-.275.718 0 .992l5.596 5.596z" mask="url(#jrx5iy7bdb)"/>
                        <path fill="#FEFEFE" d="M12.812 26.474c.177.178.485.177.662 0 .089-.089.138-.206.138-.331 0-.125-.05-.243-.138-.331l-5.286-5.287c-.183-.183-.48-.183-.663 0-.183.183-.183.48 0 .663l5.287 5.286zm.33.526c-.228 0-.443-.09-.605-.251l-5.286-5.287c-.335-.334-.335-.877 0-1.211.334-.335.877-.335 1.211 0l5.287 5.286c.162.162.251.377.251.606 0 .229-.09.444-.251.606-.162.162-.377.251-.606.251z" mask="url(#jrx5iy7bdb)"/>
                        <path fill="#FEFEFE" d="M1.317 50.7H50.7v-3.537H1.317V50.7zm1.714-4.837h31.588v-13.2H3.03v13.2zm0-14.5h31.588V12.248H3.03v19.114zM2.546 1.3h46.907l1.164 9.649H1.382L2.546 1.3zm33.372 39.731h13.068V12.25H35.918V41.03zm0 4.832h13.068v-3.532H35.918v3.532zm15.432 0h-1.064V12.25h1.064c.186 0 .363-.08.486-.22.124-.139.182-.324.16-.508L50.675.57C50.635.247 50.358 0 50.03 0H1.97c-.329 0-.606.246-.645.572L.005 11.52c-.022.184.035.37.159.509.123.14.3.219.486.219h1.082v33.614H.667c-.359 0-.65.29-.65.65v4.837c0 .36.291.65.65.65H51.35c.359 0 .65-.29.65-.65v-4.837c0-.36-.292-.65-.65-.65z" mask="url(#jrx5iy7bdb)"/>
                        <path fill="#FEFEFE" d="M1.774 10.869h48.45l-1.11-9.2H2.885l-1.11 9.2zm48.877.378H1.348l1.2-9.956H49.45l1.2 9.956zM3.387 31.134h30.98V12.538H3.387v18.596zm-.378.379h31.736V12.16H3.009v19.353zm33.026 9.22H48.63V12.538H36.035v28.195zm-.378.378h13.351V12.16H35.657V41.11zM3.387 45.53h30.98V32.803H3.387V45.53zm-.378.378h31.736V32.425H3.009v13.483zm33.026-.378H48.63v-3.128H36.035v3.128zm-.378.378h13.351v-3.885H35.657v3.885zM1.685 50.331h48.646V47.2H1.685v3.132zm-.377.378h49.401V46.82H1.308v3.89zM.85 45.908c-.251 0-.456.205-.456.456v4.802c0 .251.205.456.456.456h50.314c.252 0 .456-.205.456-.456v-4.802c0-.251-.204-.456-.456-.456H49.92V12.16h1.246c.13 0 .255-.056.34-.154.088-.098.128-.228.113-.358L50.309.78c-.029-.228-.223-.4-.454-.4H2.145c-.231 0-.426.171-.453.4L.382 11.65c-.016.129.024.26.11.357.087.098.211.154.342.154h1.263v33.748H.851zm0 6.092c-.46 0-.834-.374-.834-.834v-4.802c0-.46.374-.834.834-.834h.868V12.538H.834c-.24 0-.467-.103-.624-.282-.158-.178-.233-.416-.204-.653L1.316.734C1.367.316 1.724 0 2.146 0h47.71c.421 0 .778.316.828.734l1.311 10.87c.029.236-.046.474-.204.653-.157.178-.385.28-.624.28h-.868V45.53h.867c.46 0 .834.374.834.834v4.802c0 .46-.374.834-.834.834H.851z" mask="url(#jrx5iy7bdb)"/>
                    </g>
                </g>
            </g>
        </g>
    </g>
</svg>
